<svg xmlns="http://www.w3.org/2000/svg" viewBox="0 0 48 48">
  <defs>
    <linearGradient id="mg" x1="0" y1="0" x2="0" y2="48" gradientUnits="userSpaceOnUse">
      <stop stop-color="#94a3b8"/><stop offset="1" stop-color="#1e293b"/>
    </linearGradient>
  </defs>
  <g fill="url(#mg)" transform="translate(-8,-13) scale(0.165)">
    <path d="M295 218c-11-13-28-21-44-21-19 0-26 9-39 9s-23-9-40-9c-21 0-44 18-44 53 0 46 33 95 58 95 12 0 17-8 33-8s19 8 33 8c26 0 52-47 56-67-23-9-36-30-13-60z"/>
    <path d="M243 148c9-11 16-27 14-43-14 2-30 10-39 22-8 10-16 26-13 41 15 1 29-8 38-20z"/>
  </g>
</svg>
