<svg xmlns="http://www.w3.org/2000/svg" viewBox="0 0 780 500">
  <rect width="780" height="500" rx="60" fill="#ffffff"/>
  <rect x="6" y="6" width="768" height="488" rx="54" fill="none" stroke="#dfe3e8" stroke-width="12"/>
  <g fill="#000000">
    <path d="M295 218c-11-13-28-21-44-21-19 0-26 9-39 9s-23-9-40-9c-21 0-44 18-44 53 0 46 33 95 58 95 12 0 17-8 33-8s19 8 33 8c26 0 52-47 56-67-23-9-36-30-13-60z"/>
    <path d="M243 148c9-11 16-27 14-43-14 2-30 10-39 22-8 10-16 26-13 41 15 1 29-8 38-20z"/>
  </g>
  <text x="330" y="328" font-family="Arial, Helvetica, sans-serif" font-size="210" font-weight="500" fill="#000000">Pay</text>
</svg>
